<svg width="244" height="262" viewBox="0 0 244 262" fill="none" xmlns="http://www.w3.org/2000/svg">
<path d="M190.564 62.074C198.686 59.3871 203.295 59.4486 211.81 62.074V251.351H190.564V62.074Z" fill="url(#paint0_linear_198_35225)"/>
<path d="M166.1 62.074H235.63V71.731H166.1V62.074Z" fill="url(#paint1_linear_198_35225)"/>
<path d="M166.1 97.483H235.63V107.14H166.1V97.483Z" fill="url(#paint2_linear_198_35225)"/>
<path d="M166.1 147.056H235.63V156.713H166.1V147.056Z" fill="url(#paint3_linear_198_35225)"/>
<path d="M163.525 192.766H238.205V202.423H163.525V192.766Z" fill="url(#paint4_linear_198_35225)"/>
<path d="M228.548 202.423V71.731H231.124L231.124 202.423H228.548Z" fill="url(#paint5_linear_198_35225)"/>
<path d="M170.606 202.423L170.606 71.731H173.182L173.182 202.423H170.606Z" fill="url(#paint6_linear_198_35225)"/>
<path d="M163.525 230.277L190.268 206.285H211.462L238.205 230.277V251.995H163.525V230.277Z" fill="url(#paint7_linear_198_35225)"/>
<path d="M124.453 0H151.493V251.726H124.453V0Z" fill="url(#paint8_linear_198_35225)"/>
<path d="M93.5509 10.9446H182.395V23.1768H93.5509V10.9446Z" fill="url(#paint9_linear_198_35225)"/>
<path d="M93.5509 56.0106H182.395V68.2429H93.5509V56.0106Z" fill="url(#paint10_linear_198_35225)"/>
<path d="M93.5509 119.103H182.395V131.335H93.5509V119.103Z" fill="url(#paint11_linear_198_35225)"/>
<path d="M90.3319 177.045H185.614V189.277H90.3319V177.045Z" fill="url(#paint12_linear_198_35225)"/>
<path d="M173.382 189.277V23.1768H176.601V189.277H173.382Z" fill="url(#paint13_linear_198_35225)"/>
<path d="M99.3451 189.277L99.3451 23.1768H102.564L102.564 189.277H99.3451Z" fill="url(#paint14_linear_198_35225)"/>
<path d="M90.3319 224.686L124.453 194.106H151.493L185.614 224.686V252.37H90.3319V224.686Z" fill="url(#paint15_linear_198_35225)"/>
<path d="M53.3954 187.025H62.7499L68.2526 251.996H66.8189L62.2276 199.138H53.8575L48.8105 251.996H47.3424L53.3954 187.025Z" fill="url(#paint16_linear_198_35225)"/>
<path d="M47.8927 250.895H67.7023V251.996H47.8927V250.895Z" fill="url(#paint17_linear_198_35225)"/>
<path d="M26.9551 200.824C18.6944 192.478 21.9274 175.665 24.5764 168.302L36.9169 179.637L37.7264 187.017L38.9791 204.758C39.1101 211.672 37.3021 211.75 37.3021 211.75C37.3021 211.75 37.281 211.256 26.9551 200.824Z" fill="url(#paint18_linear_198_35225)"/>
<path d="M29.7338 187.157L80.8621 179.316L81.6123 184.214L30.4841 192.055L29.7338 187.157Z" fill="url(#paint19_linear_198_35225)"/>
<path d="M78.1574 177.114H84.7607V187.025H78.1574V177.114Z" fill="url(#paint20_linear_198_35225)"/>
<path d="M80.3585 187.025H81.4591V251.446H80.3585V187.025Z" fill="url(#paint21_linear_198_35225)"/>
<path d="M37.1197 176.027H48.0643L54.5022 251.996H52.8248L47.4531 190.191H37.6604L31.7555 251.996H30.0379L37.1197 176.027Z" fill="url(#paint22_linear_198_35225)"/>
<path d="M30.6817 250.708H53.8584V251.996H30.6817V250.708Z" fill="url(#paint23_linear_198_35225)"/>
<path d="M6.18528 192.162C-3.47955 182.404 0.302971 162.746 3.40233 154.136L17.8403 167.389L18.7875 176.018L20.253 196.762C20.4063 204.847 18.291 204.937 18.291 204.937C18.291 204.937 18.2663 204.36 6.18528 192.162Z" fill="url(#paint24_linear_198_35225)"/>
<path d="M9.43635 176.182L69.255 167.014L70.1327 172.742L10.3141 181.909L9.43635 176.182Z" fill="url(#paint25_linear_198_35225)"/>
<path d="M66.0906 164.439H73.8162V176.027H66.0906V164.439Z" fill="url(#paint26_linear_198_35225)"/>
<path d="M68.6658 176.027H69.9534V251.352H68.6658V176.027Z" fill="url(#paint27_linear_198_35225)"/>
<rect x="21.8895" y="247.488" width="222.111" height="14.1636" fill="url(#paint28_linear_198_35225)"/>
<defs>
<linearGradient id="paint0_linear_198_35225" x1="200.865" y1="62.0742" x2="200.865" y2="251.995" gradientUnits="userSpaceOnUse">
<stop stop-color="#102177"/>
<stop offset="1" stop-color="#061356"/>
</linearGradient>
<linearGradient id="paint1_linear_198_35225" x1="200.865" y1="62.0742" x2="200.865" y2="251.995" gradientUnits="userSpaceOnUse">
<stop stop-color="#102177"/>
<stop offset="1" stop-color="#061356"/>
</linearGradient>
<linearGradient id="paint2_linear_198_35225" x1="200.865" y1="62.0742" x2="200.865" y2="251.995" gradientUnits="userSpaceOnUse">
<stop stop-color="#102177"/>
<stop offset="1" stop-color="#061356"/>
</linearGradient>
<linearGradient id="paint3_linear_198_35225" x1="200.865" y1="62.0742" x2="200.865" y2="251.995" gradientUnits="userSpaceOnUse">
<stop stop-color="#102177"/>
<stop offset="1" stop-color="#061356"/>
</linearGradient>
<linearGradient id="paint4_linear_198_35225" x1="200.865" y1="62.0742" x2="200.865" y2="251.995" gradientUnits="userSpaceOnUse">
<stop stop-color="#102177"/>
<stop offset="1" stop-color="#061356"/>
</linearGradient>
<linearGradient id="paint5_linear_198_35225" x1="200.865" y1="62.0742" x2="200.865" y2="251.995" gradientUnits="userSpaceOnUse">
<stop stop-color="#102177"/>
<stop offset="1" stop-color="#061356"/>
</linearGradient>
<linearGradient id="paint6_linear_198_35225" x1="200.865" y1="62.0742" x2="200.865" y2="251.995" gradientUnits="userSpaceOnUse">
<stop stop-color="#102177"/>
<stop offset="1" stop-color="#061356"/>
</linearGradient>
<linearGradient id="paint7_linear_198_35225" x1="200.865" y1="62.0742" x2="200.865" y2="251.995" gradientUnits="userSpaceOnUse">
<stop stop-color="#102177"/>
<stop offset="1" stop-color="#061356"/>
</linearGradient>
<linearGradient id="paint8_linear_198_35225" x1="137.973" y1="10.9446" x2="137.973" y2="252.37" gradientUnits="userSpaceOnUse">
<stop stop-color="#415ADE"/>
<stop offset="1" stop-color="#273687"/>
</linearGradient>
<linearGradient id="paint9_linear_198_35225" x1="137.973" y1="10.9446" x2="137.973" y2="252.37" gradientUnits="userSpaceOnUse">
<stop stop-color="#415ADE"/>
<stop offset="1" stop-color="#273687"/>
</linearGradient>
<linearGradient id="paint10_linear_198_35225" x1="137.973" y1="10.9446" x2="137.973" y2="252.37" gradientUnits="userSpaceOnUse">
<stop stop-color="#415ADE"/>
<stop offset="1" stop-color="#273687"/>
</linearGradient>
<linearGradient id="paint11_linear_198_35225" x1="137.973" y1="10.9446" x2="137.973" y2="252.37" gradientUnits="userSpaceOnUse">
<stop stop-color="#415ADE"/>
<stop offset="1" stop-color="#273687"/>
</linearGradient>
<linearGradient id="paint12_linear_198_35225" x1="137.973" y1="10.9446" x2="137.973" y2="252.37" gradientUnits="userSpaceOnUse">
<stop stop-color="#415ADE"/>
<stop offset="1" stop-color="#273687"/>
</linearGradient>
<linearGradient id="paint13_linear_198_35225" x1="137.973" y1="10.9446" x2="137.973" y2="252.37" gradientUnits="userSpaceOnUse">
<stop stop-color="#415ADE"/>
<stop offset="1" stop-color="#273687"/>
</linearGradient>
<linearGradient id="paint14_linear_198_35225" x1="137.973" y1="10.9446" x2="137.973" y2="252.37" gradientUnits="userSpaceOnUse">
<stop stop-color="#415ADE"/>
<stop offset="1" stop-color="#273687"/>
</linearGradient>
<linearGradient id="paint15_linear_198_35225" x1="137.973" y1="10.9446" x2="137.973" y2="252.37" gradientUnits="userSpaceOnUse">
<stop stop-color="#415ADE"/>
<stop offset="1" stop-color="#273687"/>
</linearGradient>
<linearGradient id="paint16_linear_198_35225" x1="53.2145" y1="168.302" x2="53.2145" y2="251.996" gradientUnits="userSpaceOnUse">
<stop stop-color="#1B309E"/>
<stop offset="1" stop-color="#0F1D6C"/>
</linearGradient>
<linearGradient id="paint17_linear_198_35225" x1="53.2145" y1="168.302" x2="53.2145" y2="251.996" gradientUnits="userSpaceOnUse">
<stop stop-color="#1B309E"/>
<stop offset="1" stop-color="#0F1D6C"/>
</linearGradient>
<linearGradient id="paint18_linear_198_35225" x1="53.2145" y1="168.302" x2="53.2145" y2="251.996" gradientUnits="userSpaceOnUse">
<stop stop-color="#1B309E"/>
<stop offset="1" stop-color="#0F1D6C"/>
</linearGradient>
<linearGradient id="paint19_linear_198_35225" x1="53.2145" y1="168.302" x2="53.2145" y2="251.996" gradientUnits="userSpaceOnUse">
<stop stop-color="#1B309E"/>
<stop offset="1" stop-color="#0F1D6C"/>
</linearGradient>
<linearGradient id="paint20_linear_198_35225" x1="53.2145" y1="168.302" x2="53.2145" y2="251.996" gradientUnits="userSpaceOnUse">
<stop stop-color="#1B309E"/>
<stop offset="1" stop-color="#0F1D6C"/>
</linearGradient>
<linearGradient id="paint21_linear_198_35225" x1="53.2145" y1="168.302" x2="53.2145" y2="251.996" gradientUnits="userSpaceOnUse">
<stop stop-color="#1B309E"/>
<stop offset="1" stop-color="#0F1D6C"/>
</linearGradient>
<linearGradient id="paint22_linear_198_35225" x1="36.9081" y1="154.136" x2="36.9081" y2="251.996" gradientUnits="userSpaceOnUse">
<stop stop-color="#4A5DC5"/>
<stop offset="1" stop-color="#2B3C97"/>
</linearGradient>
<linearGradient id="paint23_linear_198_35225" x1="36.9081" y1="154.136" x2="36.9081" y2="251.996" gradientUnits="userSpaceOnUse">
<stop stop-color="#4A5DC5"/>
<stop offset="1" stop-color="#2B3C97"/>
</linearGradient>
<linearGradient id="paint24_linear_198_35225" x1="36.9081" y1="154.136" x2="36.9081" y2="251.996" gradientUnits="userSpaceOnUse">
<stop stop-color="#4A5DC5"/>
<stop offset="1" stop-color="#2B3C97"/>
</linearGradient>
<linearGradient id="paint25_linear_198_35225" x1="36.9081" y1="154.136" x2="36.9081" y2="251.996" gradientUnits="userSpaceOnUse">
<stop stop-color="#4A5DC5"/>
<stop offset="1" stop-color="#2B3C97"/>
</linearGradient>
<linearGradient id="paint26_linear_198_35225" x1="36.9081" y1="154.136" x2="36.9081" y2="251.996" gradientUnits="userSpaceOnUse">
<stop stop-color="#4A5DC5"/>
<stop offset="1" stop-color="#2B3C97"/>
</linearGradient>
<linearGradient id="paint27_linear_198_35225" x1="36.9081" y1="154.136" x2="36.9081" y2="251.996" gradientUnits="userSpaceOnUse">
<stop stop-color="#4A5DC5"/>
<stop offset="1" stop-color="#2B3C97"/>
</linearGradient>
<linearGradient id="paint28_linear_198_35225" x1="138.417" y1="220.77" x2="137.773" y2="281.287" gradientUnits="userSpaceOnUse">
<stop stop-color="#08155E"/>
<stop offset="1" stop-color="#2B3C97"/>
</linearGradient>
</defs>
</svg>
