<?xml version="1.0" encoding="UTF-8"?>
<svg width="238" height="312" viewBox="0 0 238 312" fill="none" xmlns="http://www.w3.org/2000/svg">
<g clip-path="url(#clip0_240_36)">
<path d="M119.666 278.563C108.472 298.74 102.378 311.235 84.5484 329.673C99.2714 309.286 105.362 292.229 109.831 281.286C113.776 271.627 128.222 230.63 131.203 227.503C134.183 224.376 135.839 223.334 139.471 223.563C143.104 223.792 146.898 223.967 146.321 226.406C145.745 228.844 128.621 262.422 119.666 278.563Z" fill="url(#paint0_linear_240_36)"/>
<path d="M128.78 289.894C122.862 300.561 119.64 307.167 110.214 316.915C117.998 306.136 121.217 297.119 123.58 291.333C125.666 286.227 133.303 264.553 134.879 262.9C136.455 261.247 137.33 260.696 139.25 260.817C141.171 260.938 143.177 261.031 142.872 262.32C142.567 263.609 133.514 281.36 128.78 289.894Z" fill="url(#paint1_linear_240_36)"/>
<path d="M113.54 87.9829C102.461 106.111 95.3777 116.669 87.2589 139.304C97.5535 118.262 107.81 105.631 114.242 97.0781C119.919 89.5291 144.621 59.323 146.01 55.5185C147.398 51.7141 147.686 49.9172 146.568 47.1199C145.45 44.3226 144.327 41.3727 142.783 42.9433C141.239 44.514 122.403 73.4807 113.54 87.9829Z" fill="url(#paint2_linear_240_36)"/>
<path d="M101.907 129.103C95.1064 140.229 90.7592 146.709 85.7762 160.603C92.0947 147.687 98.3898 139.935 102.337 134.685C105.822 130.052 120.983 111.513 121.835 109.177C122.688 106.842 122.864 105.74 122.178 104.023C121.492 102.306 120.803 100.495 119.855 101.459C118.907 102.423 107.347 120.202 101.907 129.103Z" fill="url(#paint3_linear_240_36)"/>
<path d="M192.713 22.3753C191.056 23.2103 174.584 39.039 166.555 46.849C164.707 48.6428 151.05 76.0169 150.359 77.8512C149.669 79.6855 144.815 86.9749 143.293 88.1893C141.771 89.4038 123.983 122.623 124.121 124.895C124.259 127.167 134.987 135.5 135.726 136.031C136.465 136.561 142.897 139.523 144.363 140.038C145.83 140.554 147.115 141.074 147.427 142.978C147.739 144.883 144.988 143.848 145.913 144.557C146.837 145.266 150.387 145.283 151.107 144.904C151.827 144.525 152.421 142.42 152.498 141.782C152.576 141.143 154.708 143.01 155.985 143.166C157.007 143.29 172.642 115.4 180.331 101.439C186.054 92.1295 198.301 71.7469 201.504 64.6918C205.508 55.8729 207.764 19.6984 207.463 18.3396C207.162 16.9808 207.124 15.1615 205.654 14.4639C204.184 13.7662 194.785 21.3315 192.713 22.3753Z" fill="url(#paint4_linear_240_36)"/>
<path d="M112.873 148.697L118.882 140.019C116.738 146.342 146.967 160.369 146.537 161.561C146.106 162.753 109.351 229.307 108.222 231.969C107.094 234.631 101.783 241.839 100.807 243.042C99.8308 244.246 99.2673 247.806 98.5921 250.368C97.917 252.93 92.6417 270.694 90.9464 276.735C89.251 282.776 30.7842 417.301 29.5408 418.783C28.2973 420.265 22.261 423.211 19.985 423.167C17.7091 423.123 16.1018 424.612 16.0315 425.614C15.9612 426.617 13.9836 432.209 13.3713 433.404C12.759 434.6 10.5844 439.468 9.61573 441.035C8.8408 442.289 6.64462 442.583 5.64339 442.573L4.39082 452.427L1.57069 443.658C0.31939 443.29 -2.63841 442.544 -4.45919 442.509C-6.73515 442.465 -10.7901 440 -12.9067 438.861C-15.0233 437.722 -16.4309 435.658 -18.7895 431.611C-21.1481 427.565 -19.5296 426.622 -19.133 423.792C-18.7364 420.963 -15.7853 418.445 -16.6059 418.371C-17.4264 418.297 -18.9006 417.417 -20.5718 415.814C-22.2429 414.21 -22.8225 412.584 -24.4046 410.888C-25.9866 409.191 -27.3959 415.864 -29.1073 416.718C-30.8187 417.572 -41.137 415.874 -45.2773 413.685C-48.5896 411.933 -53.2182 406.66 -55.1185 404.242C-55.7956 403.771 -57.0035 402.861 -56.4183 402.995C-55.8331 403.128 -55.3555 401.577 -55.1899 400.785L-65.7052 398.363C-60.8269 396.625 -51.1076 393.111 -51.2562 392.969C-51.4419 392.791 -52.1696 392.806 -52.9273 391.365C-53.6851 389.925 -52.7604 390.634 -51.6802 390.066C-50.5999 389.497 -48.1758 387.9 -46.6726 385.776C-45.1694 383.652 -46.3576 383.403 -46.473 382.223C-46.5883 381.042 -45.9535 380.938 -44.9032 378.914C-44.1155 377.397 -42.8262 377.865 -42.4641 378.045C-43.0174 377.692 34.5018 266.798 38.2171 261.625C41.9324 256.452 52.5673 247.042 52.3817 246.863C52.196 246.685 51.728 246.058 51.0819 245.616C50.4357 245.175 54.8234 241.717 56.8059 240.766C58.7883 239.815 63.6692 233.799 65.6028 230.483C67.5363 227.167 66.5929 225.548 72.0963 214.424C77.5998 203.299 108.994 150.324 110.345 149.659C111.426 149.127 112.481 148.796 112.873 148.697Z" fill="url(#paint5_linear_240_36)"/>
<rect x="118.266" y="141.032" width="15.955" height="0.772015" transform="rotate(-46.1829 118.266 141.032)" fill="url(#paint6_linear_240_36)"/>
<rect x="118.589" y="140.628" width="15.955" height="0.772015" transform="rotate(-66.7862 118.589 140.628)" fill="url(#paint7_linear_240_36)"/>
<rect x="125.159" y="150.143" width="15.955" height="0.772015" transform="rotate(-91.1829 125.159 150.143)" fill="url(#paint8_linear_240_36)"/>
<rect x="124.823" y="148.981" width="19.9205" height="0.772015" transform="rotate(-35.798 124.823 148.981)" fill="url(#paint9_linear_240_36)"/>
<rect x="136.24" y="157.922" width="19.9205" height="0.772015" transform="rotate(-47.5427 136.24 157.922)" fill="url(#paint10_linear_240_36)"/>
<rect x="136.987" y="156.856" width="19.9205" height="0.772015" transform="rotate(-87.458 136.987 156.856)" fill="url(#paint11_linear_240_36)"/>
<rect x="144.965" y="162.728" width="19.9205" height="0.772015" transform="rotate(-80.1352 144.965 162.728)" fill="url(#paint12_linear_240_36)"/>
<rect x="145.661" y="161.256" width="23.5253" height="0.772015" transform="rotate(-62.1997 145.661 161.256)" fill="url(#paint13_linear_240_36)"/>
<path d="M159.202 110.542C158.699 111.449 158.067 112.124 157.307 112.565C156.549 113.001 155.716 113.201 154.808 113.165C153.902 113.125 152.978 112.844 152.037 112.322C151.096 111.801 150.368 111.167 149.853 110.421C149.341 109.67 149.069 108.858 149.037 107.983C149.008 107.105 149.245 106.212 149.747 105.304C150.325 104.262 151.067 103.531 151.975 103.112C152.885 102.688 153.862 102.575 154.905 102.774L154.427 104.767C153.784 104.63 153.2 104.677 152.677 104.909C152.149 105.138 151.71 105.568 151.361 106.198C151.042 106.774 150.904 107.326 150.946 107.854C150.99 108.379 151.192 108.867 151.551 109.318C151.911 109.77 152.406 110.17 153.036 110.52C153.666 110.869 154.268 111.076 154.842 111.141C155.415 111.206 155.936 111.119 156.404 110.878C156.874 110.634 157.269 110.224 157.588 109.648C157.937 109.018 158.069 108.418 157.984 107.849C157.898 107.28 157.629 106.76 157.175 106.289L158.611 104.827C159.333 105.606 159.756 106.494 159.879 107.49C160.005 108.483 159.779 109.5 159.202 110.542Z" fill="white"/>
<path d="M164.92 100.219C164.417 101.127 163.786 101.801 163.025 102.242C162.267 102.679 161.434 102.879 160.526 102.843C159.62 102.802 158.697 102.521 157.756 102C156.814 101.478 156.087 100.845 155.572 100.098C155.06 99.3476 154.788 98.5352 154.756 97.6609C154.726 96.7823 154.963 95.8893 155.466 94.9817C156.043 93.9396 156.786 93.2088 157.694 92.7892C158.604 92.3654 159.581 92.253 160.624 92.4519L160.146 94.4443C159.502 94.3074 158.919 94.3547 158.395 94.5863C157.867 94.8155 157.429 95.2453 157.079 95.8756C156.76 96.4512 156.622 97.0034 156.664 97.5319C156.709 98.0563 156.911 98.5443 157.27 98.996C157.629 99.4477 158.124 99.8481 158.754 100.197C159.385 100.547 159.987 100.754 160.56 100.819C161.134 100.884 161.654 100.796 162.123 100.556C162.593 100.311 162.988 99.9012 163.307 99.3255C163.656 98.6953 163.788 98.0956 163.702 97.5264C163.616 96.9573 163.347 96.4374 162.894 95.9667L164.33 94.5051C165.051 95.2839 165.474 96.1715 165.598 97.168C165.723 98.1602 165.497 99.1774 164.92 100.219Z" fill="white"/>
<path d="M170.639 89.8973C170.136 90.8049 169.505 91.4791 168.744 91.92C167.986 92.3567 167.153 92.5569 166.245 92.5206C165.339 92.4802 164.416 92.1992 163.475 91.6778C162.533 91.1563 161.805 90.5224 161.291 89.776C160.779 89.0254 160.507 88.213 160.475 87.3387C160.445 86.4602 160.682 85.5671 161.185 84.6595C161.762 83.6174 162.505 82.8866 163.413 82.467C164.323 82.0432 165.3 81.9308 166.343 82.1297L165.865 84.1221C165.221 83.9852 164.638 84.0325 164.114 84.2641C163.586 84.4934 163.147 84.9231 162.798 85.5534C162.479 86.1291 162.341 86.6812 162.383 87.2098C162.428 87.7341 162.629 88.2222 162.989 88.6738C163.348 89.1255 163.843 89.526 164.473 89.8752C165.104 90.2243 165.705 90.4315 166.279 90.4966C166.852 90.5617 167.373 90.4741 167.841 90.2337C168.312 89.9891 168.707 89.579 169.025 89.0034C169.375 88.3731 169.506 87.7734 169.421 87.2043C169.335 86.6352 169.066 86.1152 168.613 85.6445L170.049 84.1829C170.77 84.9617 171.193 85.8494 171.316 86.8458C171.442 87.8381 171.216 88.8552 170.639 89.8973Z" fill="white"/>
<path d="M173.731 83.8697L164.655 78.8414L166.778 75.0092C166.827 74.921 166.896 74.8057 166.986 74.6633C167.074 74.5143 167.161 74.3869 167.248 74.2808C167.632 73.7854 168.056 73.441 168.52 73.2477C168.986 73.0503 169.473 72.9849 169.98 73.0515C170.482 73.1157 170.988 73.2887 171.496 73.5704C172.005 73.8521 172.42 74.1922 172.743 74.5907C173.064 74.9827 173.265 75.4287 173.345 75.9288C173.427 76.4247 173.361 76.9648 173.147 77.5492C173.099 77.6762 173.037 77.8176 172.961 77.9736C172.886 78.1295 172.825 78.2495 172.778 78.3335L171.605 80.4513L174.681 82.1553L173.731 83.8697ZM170.004 79.5643L171.136 77.5222C171.184 77.434 171.234 77.335 171.284 77.2253C171.333 77.1156 171.37 77.0096 171.394 76.9074C171.459 76.6414 171.453 76.4046 171.375 76.1971C171.294 75.9872 171.176 75.8091 171.021 75.6628C170.864 75.51 170.703 75.3881 170.539 75.2974C170.376 75.2066 170.189 75.1363 169.981 75.0867C169.77 75.0304 169.557 75.0246 169.34 75.0692C169.119 75.1115 168.912 75.2307 168.721 75.4269C168.647 75.5011 168.577 75.5885 168.51 75.6889C168.444 75.7893 168.386 75.8836 168.337 75.9718L167.206 78.0139L170.004 79.5643Z" fill="white"/>
<path d="M57.9387 292.881L48.8627 287.853L50.874 284.223C51.2325 283.576 51.6526 283.125 52.1342 282.87C52.6117 282.613 53.097 282.5 53.5902 282.531C54.0834 282.563 54.5296 282.689 54.9288 282.911C55.4372 283.192 55.7955 283.542 56.0036 283.959C56.2141 284.372 56.2654 284.81 56.1577 285.272L55.8426 285.097C56.2745 284.595 56.7723 284.316 57.3358 284.261C57.9017 284.201 58.4368 284.31 58.941 284.59C59.483 284.89 59.9041 285.255 60.2041 285.685C60.5065 286.11 60.6624 286.592 60.6719 287.13C60.6772 287.666 60.5088 288.242 60.1666 288.86L57.9387 292.881ZM57.289 290.248L58.4553 288.143C58.5833 287.912 58.649 287.679 58.6525 287.445C58.6518 287.208 58.5911 286.991 58.4705 286.792C58.348 286.587 58.1649 286.417 57.9212 286.282C57.7069 286.163 57.4913 286.101 57.2743 286.096C57.0573 286.091 56.8505 286.153 56.6537 286.28C56.4551 286.4 56.2825 286.593 56.1358 286.858L54.9695 288.963L57.289 290.248ZM53.3686 288.076L54.4022 286.21C54.5093 286.017 54.5711 285.826 54.5877 285.638C54.6043 285.449 54.5677 285.272 54.4779 285.107C54.3839 284.94 54.2256 284.794 54.0029 284.671C53.7256 284.517 53.4446 284.474 53.1601 284.542C52.8756 284.609 52.6425 284.807 52.4609 285.135L51.4273 287L53.3686 288.076Z" fill="white"/>
<path d="M65.3132 280.017C64.8104 280.924 64.1787 281.599 63.4183 282.039C62.6601 282.476 61.8271 282.676 60.9191 282.64C60.0134 282.6 59.09 282.319 58.1488 281.797C57.2075 281.276 56.4796 280.642 55.9651 279.895C55.4528 279.145 55.1808 278.332 55.149 277.458C55.1195 276.58 55.3561 275.687 55.859 274.779C56.3618 273.871 56.9923 273.199 57.7504 272.762C58.5109 272.322 59.3439 272.121 60.2496 272.162C61.1576 272.198 62.0822 272.477 63.0234 272.998C63.9646 273.52 64.6914 274.156 65.2036 274.906C65.7182 275.653 65.9902 276.465 66.0197 277.344C66.0515 278.218 65.816 279.109 65.3132 280.017ZM63.6997 279.123C64.027 278.552 64.1684 278.004 64.124 277.48C64.0795 276.955 63.8743 276.468 63.5085 276.018C63.1449 275.564 62.648 275.163 62.0177 274.814C61.3875 274.464 60.7877 274.258 60.2184 274.196C59.6514 274.129 59.1339 274.215 58.6657 274.456C58.1975 274.696 57.7998 275.102 57.4725 275.673C57.1452 276.244 57.0037 276.792 57.0482 277.316C57.0927 277.84 57.2967 278.329 57.6602 278.783C58.0261 279.233 58.5241 279.633 59.1544 279.982C59.7847 280.331 60.3833 280.539 60.9503 280.606C61.5196 280.669 62.0383 280.58 62.5065 280.34C62.9746 280.099 63.3724 279.694 63.6997 279.123Z" fill="white"/>
<path d="M71.1855 269.417C70.6827 270.325 70.051 270.999 69.2906 271.44C68.5325 271.877 67.6994 272.077 66.7914 272.04C65.8857 272 64.9623 271.719 64.0211 271.198C63.0798 270.676 62.3519 270.042 61.8374 269.296C61.3251 268.545 61.0531 267.733 61.0213 266.859C60.9918 265.98 61.2284 265.087 61.7313 264.179C62.3086 263.137 63.0512 262.406 63.9591 261.987C64.8694 261.563 65.846 261.451 66.889 261.65L66.4113 263.642C65.7677 263.505 65.1841 263.552 64.6604 263.784C64.1325 264.013 63.694 264.443 63.3448 265.073C63.0259 265.649 62.8875 266.201 62.9296 266.73C62.9741 267.254 63.176 267.742 63.5353 268.194C63.8947 268.645 64.3895 269.046 65.0197 269.395C65.65 269.744 66.2519 269.951 66.8254 270.016C67.3989 270.082 67.9197 269.994 68.3879 269.754C68.8584 269.509 69.2531 269.099 69.572 268.523C69.9212 267.893 70.053 267.293 69.9674 266.724C69.8818 266.155 69.6124 265.635 69.1593 265.164L70.5951 263.703C71.3169 264.482 71.7395 265.369 71.8629 266.366C71.9886 267.358 71.7628 268.375 71.1855 269.417Z" fill="white"/>
<path d="M75.863 260.528L68.3879 256.387L66.8026 259.248L65.2017 258.361L69.3221 250.924L70.923 251.811L69.3377 254.672L76.8128 258.814L75.863 260.528Z" fill="white"/>
<path d="M82.0222 249.857C81.5194 250.764 80.8877 251.439 80.1273 251.879C79.3691 252.316 78.5361 252.516 77.6281 252.48C76.7224 252.44 75.799 252.159 74.8577 251.637C73.9165 251.116 73.1886 250.482 72.674 249.735C72.1618 248.985 71.8898 248.172 71.8579 247.298C71.8284 246.42 72.0651 245.527 72.5679 244.619C73.0708 243.711 73.7012 243.039 74.4594 242.603C75.2198 242.162 76.0529 241.961 76.9586 242.002C77.8666 242.038 78.7912 242.317 79.7324 242.838C80.6736 243.36 81.4003 243.996 81.9126 244.746C82.4272 245.493 82.6992 246.305 82.7287 247.184C82.7605 248.058 82.525 248.949 82.0222 249.857ZM80.4087 248.963C80.736 248.392 80.8774 247.844 80.8329 247.32C80.7885 246.795 80.5833 246.308 80.2174 245.858C79.8539 245.404 79.357 245.003 78.7267 244.654C78.0964 244.304 77.4967 244.098 76.9274 244.036C76.3604 243.969 75.8428 244.055 75.3747 244.296C74.9065 244.536 74.5088 244.942 74.1815 245.513C73.8541 246.084 73.7127 246.632 73.7572 247.156C73.8017 247.68 74.0057 248.169 74.3692 248.623C74.735 249.073 75.2331 249.473 75.8634 249.822C76.4937 250.171 77.0923 250.379 77.6593 250.446C78.2286 250.509 78.7473 250.42 79.2154 250.18C79.6836 249.939 80.0813 249.534 80.4087 248.963Z" fill="white"/>
<path d="M85.2681 243.552L76.192 238.523L77.1418 236.809L81.3269 239.128L79.0553 233.355L80.2146 231.263L82.5876 237.536L89.4234 236.051L88.2222 238.219L82.0832 239.547L86.2179 241.837L85.2681 243.552Z" fill="white"/>
</g>
<defs>
<linearGradient id="paint0_linear_240_36" x1="154.04" y1="234.485" x2="70.1636" y2="314.616" gradientUnits="userSpaceOnUse">
<stop stop-color="#BD0303"/>
<stop offset="1" stop-color="#990000"/>
</linearGradient>
<linearGradient id="paint1_linear_240_36" x1="146.953" y1="266.591" x2="102.609" y2="308.954" gradientUnits="userSpaceOnUse">
<stop stop-color="#BD0303"/>
<stop offset="1" stop-color="#990000"/>
</linearGradient>
<linearGradient id="paint2_linear_240_36" x1="135.126" y1="40.4573" x2="101.528" y2="143.937" gradientUnits="userSpaceOnUse">
<stop stop-color="#BD0303"/>
<stop offset="1" stop-color="#990000"/>
</linearGradient>
<linearGradient id="paint3_linear_240_36" x1="115.155" y1="99.9334" x2="94.5343" y2="163.446" gradientUnits="userSpaceOnUse">
<stop stop-color="#BD0303"/>
<stop offset="1" stop-color="#990000"/>
</linearGradient>
<linearGradient id="paint4_linear_240_36" x1="154.143" y1="59.7834" x2="196.8" y2="100.715" gradientUnits="userSpaceOnUse">
<stop stop-color="#C2121F"/>
<stop offset="1" stop-color="#780001"/>
</linearGradient>
<linearGradient id="paint5_linear_240_36" x1="11.3867" y1="252.047" x2="107.849" y2="344.606" gradientUnits="userSpaceOnUse">
<stop stop-color="#C2121F"/>
<stop offset="1" stop-color="#780001"/>
</linearGradient>
<linearGradient id="paint6_linear_240_36" x1="126.244" y1="141.032" x2="126.244" y2="141.804" gradientUnits="userSpaceOnUse">
<stop stop-color="#C2121F"/>
<stop offset="1" stop-color="#780001"/>
</linearGradient>
<linearGradient id="paint7_linear_240_36" x1="126.566" y1="140.628" x2="126.566" y2="141.4" gradientUnits="userSpaceOnUse">
<stop stop-color="#C2121F"/>
<stop offset="1" stop-color="#780001"/>
</linearGradient>
<linearGradient id="paint8_linear_240_36" x1="133.137" y1="150.143" x2="133.137" y2="150.915" gradientUnits="userSpaceOnUse">
<stop stop-color="#C2121F"/>
<stop offset="1" stop-color="#780001"/>
</linearGradient>
<linearGradient id="paint9_linear_240_36" x1="134.783" y1="148.981" x2="134.783" y2="149.753" gradientUnits="userSpaceOnUse">
<stop stop-color="#C2121F"/>
<stop offset="1" stop-color="#780001"/>
</linearGradient>
<linearGradient id="paint10_linear_240_36" x1="146.2" y1="157.922" x2="146.2" y2="158.694" gradientUnits="userSpaceOnUse">
<stop stop-color="#C2121F"/>
<stop offset="1" stop-color="#780001"/>
</linearGradient>
<linearGradient id="paint11_linear_240_36" x1="146.947" y1="156.856" x2="146.947" y2="157.628" gradientUnits="userSpaceOnUse">
<stop stop-color="#C2121F"/>
<stop offset="1" stop-color="#780001"/>
</linearGradient>
<linearGradient id="paint12_linear_240_36" x1="154.925" y1="162.728" x2="154.925" y2="163.5" gradientUnits="userSpaceOnUse">
<stop stop-color="#C2121F"/>
<stop offset="1" stop-color="#780001"/>
</linearGradient>
<linearGradient id="paint13_linear_240_36" x1="157.424" y1="161.256" x2="157.424" y2="162.028" gradientUnits="userSpaceOnUse">
<stop stop-color="#C2121F"/>
<stop offset="1" stop-color="#780001"/>
</linearGradient>
<clipPath id="clip0_240_36">
<rect width="238" height="312" fill="white"/>
</clipPath>
</defs>
</svg>
