<svg width="24" height="25" viewBox="0 0 24 25" fill="none" xmlns="http://www.w3.org/2000/svg">
<g filter="url(#filter0_d_444_1210)">
<path d="M12 4C12.5523 4 13 4.44772 13 5V6.76172C15.1434 7.16836 16.8316 8.85662 17.2383 11H19C19.5523 11 20 11.4477 20 12C20 12.5523 19.5523 13 19 13H17.2383C16.8317 15.1433 15.1433 16.8306 13 17.2373V19C13 19.5523 12.5523 20 12 20C11.4477 20 11 19.5523 11 19V17.2373C8.8567 16.8306 7.16834 15.1433 6.76172 13H5C4.44772 13 4 12.5523 4 12C4 11.4477 4.44772 11 5 11H6.76172C7.16836 8.85662 8.85662 7.16836 11 6.76172V5C11 4.44772 11.4477 4 12 4ZM12 8C9.79086 8 8 9.79086 8 12C8 14.2091 9.79086 16 12 16C14.2091 16 16 14.2091 16 12C16 9.79086 14.2091 8 12 8Z" fill="white"/>
</g>
<defs>
<filter id="filter0_d_444_1210" x="0" y="0" width="24" height="25" filterUnits="userSpaceOnUse" color-interpolation-filters="sRGB">
<feFlood flood-opacity="0" result="BackgroundImageFix"/>
<feColorMatrix in="SourceAlpha" type="matrix" values="0 0 0 0 0 0 0 0 0 0 0 0 0 0 0 0 0 0 127 0" result="hardAlpha"/>
<feOffset dy="1"/>
<feComposite in2="hardAlpha" operator="out"/>
<feColorMatrix type="matrix" values="0 0 0 0 0 0 0 0 0 0 0 0 0 0 0 0 0 0 0.25 0"/>
<feBlend mode="normal" in2="BackgroundImageFix" result="effect1_dropShadow_444_1210"/>
<feBlend mode="normal" in="SourceGraphic" in2="effect1_dropShadow_444_1210" result="shape"/>
</filter>
</defs>
</svg>
