<svg width="207" height="80" viewBox="0 0 207 80" fill="none" xmlns="http://www.w3.org/2000/svg">
<g clip-path="url(#clip0_102_33828)">
<mask id="mask0_102_33828" style="mask-type:luminance" maskUnits="userSpaceOnUse" x="10" y="5" width="198" height="75">
<path d="M207.069 5.74359H10.9669V79.8633H207.069V5.74359Z" fill="white"/>
</mask>
<g mask="url(#mask0_102_33828)">
<path d="M201.174 75.8291C202.819 76.9915 204.532 77.9488 206.383 78.6325C206.657 78.7693 207.206 78.7693 207 79.453C206.726 79.3847 206.452 79.3847 206.177 79.3163C203.71 78.1539 201.037 77.6753 198.432 76.9915C196.65 76.5129 194.868 75.8291 193.154 75.077C189.11 73.4359 185.203 71.6582 181.365 69.5385C178.897 68.171 176.567 66.53 174.511 64.4787C171.906 61.8804 170.535 58.7351 170.604 55.0428C170.604 53.812 170.672 52.6496 170.741 51.4189C170.741 51.1454 170.741 50.8718 170.741 50.4616C170.398 50.7351 170.192 50.8718 169.987 51.0086C166.422 54.0171 162.653 56.8206 158.677 59.2821C155.661 61.1283 153.673 62.2223 150.452 63.7949C149.013 64.4787 149.904 64 148.464 64.6838L146.065 62.2906C150.726 60.3077 151.686 59.6924 156.141 57.1624C159.294 55.3163 162.31 53.265 165.12 50.9402C166.765 49.6411 168.136 48 169.644 46.5641C169.713 46.4958 169.781 46.4274 169.85 46.2906C170.809 45.3334 170.809 45.3334 170.192 44.1026C169.164 41.9146 167.519 40.4103 165.531 39.1112C164.092 38.2223 162.584 37.4018 161.076 36.6496C157.649 34.9402 154.222 33.3676 150.795 31.6581C148.601 30.5641 146.682 28.9915 145.243 27.0086C144.077 25.4359 143.323 23.6582 143.323 21.6753C143.323 20.0342 143.872 18.5983 144.763 17.2308C146.202 14.9744 148.121 13.3334 150.315 11.8975C154.633 9.16242 159.363 7.17952 164.435 6.35901C169.233 5.5385 173.962 5.60687 178.555 7.31627C181.571 8.47866 184.038 10.3248 185.889 12.9231C187.26 14.8376 187.808 17.0257 188.014 19.2821C188.288 22.6325 187.602 25.7778 186.437 28.8547C184.655 33.3676 182.119 37.4701 179.172 41.2992C178.006 42.8035 176.772 44.3077 175.539 45.7436C175.333 46.0171 175.127 46.2906 175.127 46.6325C175.47 49.0941 175.127 51.624 175.196 54.0855C175.196 54.9744 175.265 55.7949 175.402 56.6154C175.676 58.3248 176.498 59.7607 177.732 60.9915C179.514 62.7693 181.502 64.2735 183.695 65.5043C186.985 67.4188 190.344 69.3334 193.634 71.1795C196.17 72.6154 198.775 74.0513 201.174 75.8291ZM175.744 39.1795C176.293 38.2223 181.433 30.5641 179.651 21.265C178.212 16.4103 175.744 12.3077 168.41 10.9402C159.637 10.5299 154.702 13.4018 152.097 15.1795C145.174 19.3505 145.037 25.5727 158.266 30.8377C160.802 32.0684 163.338 33.2308 165.874 34.53C168.89 36.1026 171.563 38.1539 173.414 41.0257C173.482 41.0941 173.551 41.1624 173.757 41.4359C173.688 41.5043 175.265 40.0684 175.744 39.1795Z" fill="#C2121F"/>
</g>
<mask id="mask1_102_33828" style="mask-type:luminance" maskUnits="userSpaceOnUse" x="10" y="5" width="198" height="75">
<path d="M207.069 5.74359H10.9669V79.8633H207.069V5.74359Z" fill="white"/>
</mask>
<g mask="url(#mask1_102_33828)">
<path d="M139.485 65.0941L141.953 67.5556C135.989 69.9487 132.288 71.1795 126.051 72.8205C123.24 73.5727 120.362 74.2564 117.551 74.9402L115.906 72.0684C123.515 70.4274 128.518 69.1282 135.852 66.5299C137.018 66.0513 138.251 65.5727 139.485 65.0941Z" fill="#C2121F"/>
</g>
<mask id="mask2_102_33828" style="mask-type:luminance" maskUnits="userSpaceOnUse" x="10" y="5" width="198" height="75">
<path d="M207.069 5.74359H10.9669V79.8633H207.069V5.74359Z" fill="white"/>
</mask>
<g mask="url(#mask2_102_33828)">
<path d="M110.149 73.4359L111.794 76.3077C108.778 76.9231 105.762 77.4701 102.677 77.9487C99.6615 78.359 96.7142 78.7009 93.6983 79.0428C90.134 79.453 86.5013 79.6581 82.937 79.7949V76.6496C86.6383 76.5128 90.3397 76.171 93.9724 75.8975C98.9075 75.4872 103.706 74.7351 108.572 73.7778C109.12 73.641 109.6 73.5727 110.149 73.4359Z" fill="#C2121F"/>
</g>
<mask id="mask3_102_33828" style="mask-type:luminance" maskUnits="userSpaceOnUse" x="10" y="5" width="198" height="75">
<path d="M207.069 5.74359H10.9669V79.8633H207.069V5.74359Z" fill="white"/>
</mask>
<g mask="url(#mask3_102_33828)">
<path d="M104.254 66.3932C111.451 64.9573 118.579 63.2479 125.502 61.0598C138.388 57.4359 151.96 50.0513 151.96 50.1197C151.274 50.5983 140.719 59.2821 118.237 64.9573C100.69 69.7436 86.7069 68.718 86.7069 68.6496C87.5294 68.5812 100.621 67.1453 104.254 66.3932Z" fill="#C2121F"/>
</g>
<mask id="mask4_102_33828" style="mask-type:luminance" maskUnits="userSpaceOnUse" x="10" y="5" width="198" height="75">
<path d="M207.069 5.74359H10.9669V79.8633H207.069V5.74359Z" fill="white"/>
</mask>
<g mask="url(#mask4_102_33828)">
<path d="M79.7841 76.7179V79.8632C78.756 79.8632 77.6593 79.8632 76.6311 79.8632C71.3533 79.8632 67.3093 79.5897 62.0315 79.1111C59.4954 78.906 57.0279 78.5641 54.5603 78.2906L55.1086 75.282C57.5762 75.6239 60.0437 75.8974 62.5798 76.1709C64.7732 76.3761 66.9666 76.4444 69.0914 76.5812C72.9984 76.7863 75.8086 76.8547 79.7841 76.7179Z" fill="#C2121F"/>
</g>
<mask id="mask5_102_33828" style="mask-type:luminance" maskUnits="userSpaceOnUse" x="10" y="5" width="198" height="75">
<path d="M207.069 5.74359H10.9669V79.8633H207.069V5.74359Z" fill="white"/>
</mask>
<g mask="url(#mask5_102_33828)">
<path d="M50.7219 74.7351L50.1735 77.7436C44.1417 76.7864 39.4123 76.0342 33.5861 74.0513C31.9411 73.5043 30.296 72.8889 28.7195 72.2052L30.2275 69.6752C31.3242 70.2222 32.558 70.7009 33.8603 71.1795C37.9043 72.7522 44.4159 73.7094 49.8993 74.5983C50.1735 74.6667 50.4477 74.7351 50.7219 74.7351Z" fill="#C2121F"/>
</g>
<mask id="mask6_102_33828" style="mask-type:luminance" maskUnits="userSpaceOnUse" x="10" y="5" width="198" height="75">
<path d="M207.069 5.74359H10.9669V79.8633H207.069V5.74359Z" fill="white"/>
</mask>
<g mask="url(#mask6_102_33828)">
<path d="M26.1834 67.6923L24.6069 70.4273C17.4099 67.1453 11.8579 63.5897 10.9669 62.9744C12.0635 60.6496 12.9546 59.8291 14.9423 56.4786C16.1761 59.8974 18.9864 63.8632 26.1834 67.6923Z" fill="#C2121F"/>
</g>
<path d="M7.95099 38.0854C3.42715 38.0854 -0.27417 41.7778 -0.27417 46.2906C-0.27417 47.5213 6.4075e-06 48.7521 0.479808 49.7777C1.78213 52.5812 4.66093 54.4957 7.95099 54.4957C10.7613 54.4957 13.2288 53.0598 14.7368 50.9401C15.148 50.3248 15.4907 49.7094 15.6963 49.0256C15.6963 49.0256 15.6963 49.0256 15.6963 48.9572C15.9705 48.1367 16.1762 47.2478 16.1762 46.2906C16.1762 41.7778 12.5434 38.0854 7.95099 38.0854ZM7.95099 50.0513C5.8947 50.0513 4.18113 48.3419 4.18113 46.2906C4.18113 44.2393 5.8947 42.5299 7.95099 42.5299C10.0073 42.5299 11.7209 44.2393 11.7209 46.2906C11.7209 48.3419 10.0073 50.0513 7.95099 50.0513Z" fill="#C2121F"/>
<path d="M16.1076 46.2906C16.1076 46.2906 15.9705 48.2735 15.7649 48.9573C15.7649 48.9573 15.7649 48.9573 15.7649 49.0256C15.5593 49.5726 15.2166 50.188 14.8053 50.9402C12.6119 54.7008 8.01955 60.3077 8.01955 60.3077C8.01955 60.3077 1.85066 52.7179 0.548345 49.7778C0.20563 48.9572 -0.137085 46.2906 -0.137085 46.2906H4.24969C4.24969 48.3419 5.96326 50.0513 8.01955 50.0513C10.0758 50.0513 11.7894 48.3419 11.7894 46.2906H16.1076Z" fill="#C2121F"/>
<path d="M23.1675 15.3846H32.2838C39.4123 15.3846 44.2788 17.7778 44.2788 24.7522C44.2788 31.453 39.4808 34.5983 32.4894 34.5983H27.2801V47.1795H23.2361V15.3846H23.1675ZM40.2348 24.6838C40.2348 20.1026 37.4245 18.5983 31.804 18.5983H27.2801V31.2479H32.0096C37.5616 31.2479 40.2348 29.265 40.2348 24.6838ZM47.3632 35.4188C47.3632 27.5556 52.504 23.0428 58.3301 23.0428C64.0878 23.0428 69.297 27.5556 69.297 35.4188C69.297 43.2137 64.1563 47.7265 58.3301 47.7265C52.5725 47.7265 47.3632 43.2137 47.3632 35.4188ZM65.1159 35.4188C65.1159 30.0171 62.3742 26.3248 58.3301 26.3248C54.2861 26.3248 51.5444 30.0171 51.5444 35.4188C51.5444 40.8205 54.2861 44.4445 58.3301 44.4445C62.3742 44.4445 65.1159 40.8205 65.1159 35.4188ZM73.7523 35.4188C73.7523 27.5556 79.0987 23.0428 85.1305 23.0428C88.2149 23.0428 90.4083 24.3419 92.0533 25.7778L89.997 28.4445C88.6262 27.2137 87.1868 26.3932 85.3361 26.3932C81.0864 26.3932 77.9335 30.0855 77.9335 35.4872C77.9335 40.8889 80.8808 44.5129 85.2675 44.5129C87.3924 44.5129 89.3116 43.4872 90.8195 42.1881L92.5331 44.8547C90.4083 46.7693 87.7351 47.8633 84.9248 47.8633C78.4818 47.7265 73.7523 43.2137 73.7523 35.4188ZM94.8636 35.4188C94.8636 27.5556 100.21 23.0428 106.242 23.0428C109.326 23.0428 111.52 24.3419 113.165 25.7778L111.108 28.4445C109.737 27.2137 108.298 26.3932 106.447 26.3932C102.198 26.3932 99.0447 30.0855 99.0447 35.4872C99.0447 40.8889 101.992 44.5129 106.379 44.5129C108.504 44.5129 110.423 43.4872 111.931 42.1881L113.644 44.8547C111.52 46.7693 108.846 47.8633 106.036 47.8633C99.6616 47.7265 94.8636 43.2137 94.8636 35.4188ZM118.785 23.5898H122.692V33.3675C122.692 35.8975 122.486 39.0428 122.349 42.0513H122.555C123.446 40.6154 124.817 38.4274 125.708 36.9915L134.619 23.5214H138.32V47.1795H134.344V37.4017C134.344 34.8718 134.55 31.7265 134.756 28.718H134.55C133.659 30.1539 132.288 32.3419 131.466 33.7778L122.486 47.1795H118.785V23.5898Z" fill="#283687"/>
<path d="M25.8407 1.64104H23.5103V0.0684011H30.0904V1.64104H27.7599V8.47865H25.8407V1.64104ZM33.1063 0.0684011H35.3682L38.0414 8.47865H36.0536L35.5053 6.49575H32.9007L32.3523 8.47865H30.4331L33.1063 0.0684011ZM35.094 4.99147L34.8884 4.23933C34.6828 3.41882 34.4086 2.39318 34.203 1.50429H34.1344C33.9288 2.39318 33.7232 3.35045 33.449 4.23933L33.2434 4.99147H35.094ZM42.4281 4.30771C42.4281 1.5043 44.2788 -0.0683594 46.4036 -0.0683594C47.5003 -0.0683594 48.3914 0.410277 48.9397 1.02566L47.9116 2.25643C47.5003 1.84618 47.0205 1.57267 46.4036 1.57267C45.2384 1.57267 44.3474 2.59831 44.3474 4.30771C44.3474 6.01712 45.1699 7.04276 46.4036 7.04276C47.0891 7.04276 47.6374 6.70088 48.0487 6.22225L49.0768 7.38464C48.3914 8.20515 47.4318 8.61541 46.3351 8.61541C44.2103 8.61541 42.4281 7.11113 42.4281 4.30771ZM52.5725 0.0684011H54.8344L57.5076 8.47865H55.5199L54.9715 6.49575H52.3669L51.8185 8.47865H49.8993L52.5725 0.0684011ZM54.5603 4.99147L54.3546 4.23933C54.149 3.41882 53.8748 2.39318 53.6692 1.50429H53.6007C53.395 2.39318 53.1894 3.35045 52.9152 4.23933L52.7096 4.99147H54.5603ZM59.0156 0.0684011H61.0719L62.4427 3.82908C62.5798 4.30772 62.7854 4.85472 62.9225 5.40172H62.9911C63.1281 4.85472 63.3338 4.37609 63.4709 3.82908L64.7732 0.0684011H66.8295V8.47865H65.1159V5.40172C65.1159 4.58121 65.253 3.35045 65.3901 2.52993H65.3215L64.6361 4.51284L63.4709 7.72652H62.4427L61.2775 4.51284L60.592 2.52993H60.5235C60.592 3.35045 60.7977 4.58121 60.7977 5.40172V8.47865H59.0841V0.0684011H59.0156ZM71.1477 0.0684011H73.4096L76.0828 8.47865H74.0265L73.4782 6.49575H70.8735L70.3252 8.47865H68.4059L71.1477 0.0684011ZM73.1354 4.99147L72.9298 4.23933C72.7242 3.41882 72.45 2.39318 72.2444 1.50429H72.1758C71.9702 2.39318 71.7646 3.35045 71.4904 4.23933L71.2848 4.99147H73.1354ZM78.9616 5.12822C78.002 4.71797 77.3165 3.96583 77.3165 2.66668C77.3165 0.683777 78.756 0.0684011 80.5381 0.0684011H83.554V8.47865H81.6348V5.47011H80.6752L78.893 8.47865H76.7682L78.9616 5.12822ZM81.7033 3.89745V1.50429H80.7437C79.7156 1.50429 79.2358 1.7778 79.2358 2.59831C79.2358 3.41883 79.7841 3.82908 80.7437 3.82908H81.7033V3.89745Z" fill="#C2121F"/>
</g>
<defs>
<clipPath id="clip0_102_33828">
<rect width="207" height="80" fill="white"/>
</clipPath>
</defs>
</svg>
